<svg xmlns="http://www.w3.org/2000/svg" width="56" height="56" viewBox="0 0 56 56"><defs><linearGradient id="flame" x1="0" y1="1" x2="0" y2="0"><stop offset="0" stop-color="#3f7fff"/><stop offset="0.6" stop-color="#5ec8ff"/><stop offset="1" stop-color="#7fd3a8"/></linearGradient></defs><g transform="scale(1)"><path d="M28 3C37 15 46 24 44 37C43 47 36 53 28 53C20 53 13 47 12 37C11 26 21 20 23 9C26 16 28 18 28 3Z" fill="url(#flame)"/><path d="M28 22C33 30 38 35 37 42C36 48 32 51 28 51C24 51 20 48 19 42C19 36 25 33 26 27C27 31 28 31 28 22Z" fill="#f6efe4" opacity="0.75"/></g></svg>
