<svg xmlns="http://www.w3.org/2000/svg" width="2048" height="2048" viewBox="0 0 2048 2048"><rect x="96" y="96" width="1856" height="1856" rx="30" fill="none" stroke="#5eb086" stroke-width="3" stroke-dasharray="110 34" opacity="0.9"/><path d="M250 96L250 118" stroke="#e8b64f" stroke-width="2.5"/><circle cx="250" cy="118" r="4.5" fill="#e8b64f"/><circle cx="250" cy="96" r="5.5" fill="#17171e" stroke="#e8b64f" stroke-width="2.5"/><circle cx="250" cy="1952" r="5.5" fill="#17171e" stroke="#7fd3a8" stroke-width="2.5"/><circle cx="96" cy="250" r="5.5" fill="#17171e" stroke="#e8b64f" stroke-width="2.5"/><path d="M1952 250L1930 250" stroke="#7fd3a8" stroke-width="2.5"/><circle cx="1930" cy="250" r="4.5" fill="#7fd3a8"/><circle cx="1952" cy="250" r="5.5" fill="#17171e" stroke="#7fd3a8" stroke-width="2.5"/><circle cx="430" cy="96" r="5.5" fill="#17171e" stroke="#e8b64f" stroke-width="2.5"/><circle cx="430" cy="1952" r="5.5" fill="#17171e" stroke="#7fd3a8" stroke-width="2.5"/><path d="M96 430L118 430" stroke="#e8b64f" stroke-width="2.5"/><circle cx="118" cy="430" r="4.5" fill="#e8b64f"/><circle cx="96" cy="430" r="5.5" fill="#17171e" stroke="#e8b64f" stroke-width="2.5"/><circle cx="1952" cy="430" r="5.5" fill="#17171e" stroke="#7fd3a8" stroke-width="2.5"/><circle cx="610" cy="96" r="5.5" fill="#17171e" stroke="#e8b64f" stroke-width="2.5"/><path d="M610 1952L610 1930" stroke="#7fd3a8" stroke-width="2.5"/><circle cx="610" cy="1930" r="4.5" fill="#7fd3a8"/><circle cx="610" cy="1952" r="5.5" fill="#17171e" stroke="#7fd3a8" stroke-width="2.5"/><circle cx="96" cy="610" r="5.5" fill="#17171e" stroke="#e8b64f" stroke-width="2.5"/><circle cx="1952" cy="610" r="5.5" fill="#17171e" stroke="#7fd3a8" stroke-width="2.5"/><path d="M790 96L790 118" stroke="#e8b64f" stroke-width="2.5"/><circle cx="790" cy="118" r="4.5" fill="#e8b64f"/><circle cx="790" cy="96" r="5.5" fill="#17171e" stroke="#e8b64f" stroke-width="2.5"/><circle cx="790" cy="1952" r="5.5" fill="#17171e" stroke="#7fd3a8" stroke-width="2.5"/><circle cx="96" cy="790" r="5.5" fill="#17171e" stroke="#e8b64f" stroke-width="2.5"/><path d="M1952 790L1930 790" stroke="#7fd3a8" stroke-width="2.5"/><circle cx="1930" cy="790" r="4.5" fill="#7fd3a8"/><circle cx="1952" cy="790" r="5.5" fill="#17171e" stroke="#7fd3a8" stroke-width="2.5"/><circle cx="970" cy="96" r="5.5" fill="#17171e" stroke="#e8b64f" stroke-width="2.5"/><circle cx="970" cy="1952" r="5.5" fill="#17171e" stroke="#7fd3a8" stroke-width="2.5"/><path d="M96 970L118 970" stroke="#e8b64f" stroke-width="2.5"/><circle cx="118" cy="970" r="4.5" fill="#e8b64f"/><circle cx="96" cy="970" r="5.5" fill="#17171e" stroke="#e8b64f" stroke-width="2.5"/><circle cx="1952" cy="970" r="5.5" fill="#17171e" stroke="#7fd3a8" stroke-width="2.5"/><circle cx="1150" cy="96" r="5.5" fill="#17171e" stroke="#e8b64f" stroke-width="2.5"/><path d="M1150 1952L1150 1930" stroke="#7fd3a8" stroke-width="2.5"/><circle cx="1150" cy="1930" r="4.5" fill="#7fd3a8"/><circle cx="1150" cy="1952" r="5.5" fill="#17171e" stroke="#7fd3a8" stroke-width="2.5"/><circle cx="96" cy="1150" r="5.5" fill="#17171e" stroke="#e8b64f" stroke-width="2.5"/><circle cx="1952" cy="1150" r="5.5" fill="#17171e" stroke="#7fd3a8" stroke-width="2.5"/><path d="M1330 96L1330 118" stroke="#e8b64f" stroke-width="2.5"/><circle cx="1330" cy="118" r="4.5" fill="#e8b64f"/><circle cx="1330" cy="96" r="5.5" fill="#17171e" stroke="#e8b64f" stroke-width="2.5"/><circle cx="1330" cy="1952" r="5.5" fill="#17171e" stroke="#7fd3a8" stroke-width="2.5"/><circle cx="96" cy="1330" r="5.5" fill="#17171e" stroke="#e8b64f" stroke-width="2.5"/><path d="M1952 1330L1930 1330" stroke="#7fd3a8" stroke-width="2.5"/><circle cx="1930" cy="1330" r="4.5" fill="#7fd3a8"/><circle cx="1952" cy="1330" r="5.5" fill="#17171e" stroke="#7fd3a8" stroke-width="2.5"/><circle cx="1510" cy="96" r="5.5" fill="#17171e" stroke="#e8b64f" stroke-width="2.5"/><circle cx="1510" cy="1952" r="5.5" fill="#17171e" stroke="#7fd3a8" stroke-width="2.5"/><path d="M96 1510L118 1510" stroke="#e8b64f" stroke-width="2.5"/><circle cx="118" cy="1510" r="4.5" fill="#e8b64f"/><circle cx="96" cy="1510" r="5.5" fill="#17171e" stroke="#e8b64f" stroke-width="2.5"/><circle cx="1952" cy="1510" r="5.5" fill="#17171e" stroke="#7fd3a8" stroke-width="2.5"/><circle cx="1690" cy="96" r="5.5" fill="#17171e" stroke="#e8b64f" stroke-width="2.5"/><path d="M1690 1952L1690 1930" stroke="#7fd3a8" stroke-width="2.5"/><circle cx="1690" cy="1930" r="4.5" fill="#7fd3a8"/><circle cx="1690" cy="1952" r="5.5" fill="#17171e" stroke="#7fd3a8" stroke-width="2.5"/><circle cx="96" cy="1690" r="5.5" fill="#17171e" stroke="#e8b64f" stroke-width="2.5"/><circle cx="1952" cy="1690" r="5.5" fill="#17171e" stroke="#7fd3a8" stroke-width="2.5"/></svg>
