<svg xmlns="http://www.w3.org/2000/svg" width="2048" height="2048" viewBox="0 0 2048 2048"><defs><radialGradient id="glow"><stop offset="0" stop-color="#f6efe4" stop-opacity="0.55"/><stop offset="1" stop-color="#f6efe4" stop-opacity="0"/></radialGradient></defs><circle cx="1587.9" cy="669.9" r="2.2" fill="#f6efe4" opacity="0.7"/><circle cx="494.5" cy="937.6" r="1.4" fill="#f6efe4" opacity="0.8"/><circle cx="820.7" cy="1821.9" r="1.8" fill="#f6efe4" opacity="0.7"/><circle cx="508.2" cy="1457.9" r="1.7" fill="#f6efe4" opacity="0.7"/><circle cx="381" cy="1768.4" r="2.5" fill="#f6efe4" opacity="0.8"/><circle cx="111.1" cy="170.1" r="1.4" fill="#f6efe4" opacity="0.8"/><circle cx="1202" cy="1453.3" r="1.4" fill="#f6efe4" opacity="0.5"/><circle cx="1046.6" cy="612.9" r="2" fill="#f6efe4" opacity="0.4"/><circle cx="475.3" cy="120.8" r="1.7" fill="#f6efe4" opacity="0.4"/><circle cx="231.8" cy="1696.1" r="1.4" fill="#e8b64f" opacity="0.6"/><circle cx="1420.9" cy="1539.8" r="2.5" fill="#f6efe4" opacity="0.5"/><circle cx="474" cy="966.5" r="1.4" fill="#f6efe4" opacity="0.4"/><circle cx="1753.9" cy="1655.3" r="2.1" fill="#f6efe4" opacity="0.4"/><circle cx="1023.8" cy="1814.8" r="1.7" fill="#f6efe4" opacity="0.8"/><circle cx="125.5" cy="783.1" r="1.5" fill="#f6efe4" opacity="0.4"/><circle cx="1364.3" cy="530.6" r="2.5" fill="#f6efe4" opacity="0.4"/><circle cx="121.2" cy="1658" r="2.4" fill="#f6efe4" opacity="0.4"/><circle cx="1203.6" cy="248.9" r="1.5" fill="#f6efe4" opacity="0.9"/><circle cx="457.1" cy="1663.7" r="1.3" fill="#f6efe4" opacity="0.9"/><circle cx="367.9" cy="1810.2" r="2.6" fill="#f6efe4" opacity="0.7"/><circle cx="1707.6" cy="499.8" r="2.2" fill="#f6efe4" opacity="0.7"/><circle cx="1298.9" cy="197" r="1.4" fill="#f6efe4" opacity="0.8"/><circle cx="1844.5" cy="792.7" r="2.4" fill="#f6efe4" opacity="0.9"/><circle cx="638" cy="1127" r="1.3" fill="#e8b64f" opacity="0.6"/><circle cx="1380.4" cy="400.7" r="2.6" fill="#f6efe4" opacity="0.4"/><circle cx="281.6" cy="1796.6" r="2.1" fill="#f6efe4" opacity="0.6"/><circle cx="1444.4" cy="1395.1" r="1.1" fill="#f6efe4" opacity="0.5"/><circle cx="1208.6" cy="214.4" r="2.2" fill="#f6efe4" opacity="0.7"/><circle cx="561.1" cy="1432.8" r="1.2" fill="#e8b64f" opacity="0.9"/><circle cx="738" cy="355.6" r="1.4" fill="#f6efe4" opacity="0.5"/><circle cx="965.7" cy="944.2" r="1.9" fill="#f6efe4" opacity="0.6"/><circle cx="1212.5" cy="953.8" r="2.1" fill="#f6efe4" opacity="0.6"/><circle cx="864.7" cy="1457.9" r="1.7" fill="#f6efe4" opacity="0.4"/><circle cx="1722.5" cy="1174.6" r="2.4" fill="#f6efe4" opacity="0.4"/><circle cx="340.1" cy="474.4" r="1.2" fill="#7fd3a8" opacity="0.5"/><circle cx="1195.4" cy="581.5" r="1.5" fill="#f6efe4" opacity="0.7"/><circle cx="1702.3" cy="955.1" r="1.7" fill="#f6efe4" opacity="0.5"/><circle cx="1207.2" cy="1464.6" r="2.5" fill="#f6efe4" opacity="0.4"/><circle cx="168.7" cy="1157.8" r="1.8" fill="#7fd3a8" opacity="0.8"/><circle cx="522.5" cy="356.3" r="1.8" fill="#7fd3a8" opacity="0.6"/><circle cx="510" cy="682.7" r="1.5" fill="#f6efe4" opacity="0.6"/><circle cx="119.6" cy="354.6" r="1.5" fill="#f6efe4" opacity="0.8"/><circle cx="904.1" cy="1320.2" r="2.1" fill="#e8b64f" opacity="0.9"/><circle cx="222.8" cy="1163.8" r="2.4" fill="#f6efe4" opacity="0.4"/><circle cx="1097.1" cy="1039.9" r="1.9" fill="#e8b64f" opacity="0.5"/><circle cx="1742.2" cy="1226.4" r="1.4" fill="#f6efe4" opacity="0.8"/><circle cx="231.1" cy="443.9" r="2.4" fill="#f6efe4" opacity="0.4"/><circle cx="1373.6" cy="1008.6" r="2.1" fill="#f6efe4" opacity="0.4"/><circle cx="894.5" cy="509.3" r="2" fill="#f6efe4" opacity="0.6"/><circle cx="1616.7" cy="1299.3" r="1.3" fill="#f6efe4" opacity="0.7"/><circle cx="1248.7" cy="421.9" r="1.3" fill="#f6efe4" opacity="0.4"/><circle cx="468.7" cy="1019" r="1.8" fill="#7fd3a8" opacity="0.6"/><circle cx="1690.2" cy="846.9" r="2.6" fill="#7fd3a8" opacity="0.8"/><circle cx="753" cy="1354.9" r="2.6" fill="#f6efe4" opacity="0.4"/><circle cx="137" cy="959.3" r="1.4" fill="#f6efe4" opacity="0.9"/><circle cx="425.6" cy="284.1" r="1.4" fill="#f6efe4" opacity="0.5"/><circle cx="700.6" cy="729.5" r="1.4" fill="#f6efe4" opacity="0.5"/><circle cx="1825.7" cy="1788.8" r="1.1" fill="#f6efe4" opacity="0.8"/><circle cx="1118.9" cy="1624.4" r="1.3" fill="#f6efe4" opacity="0.6"/><circle cx="1116.5" cy="1761.5" r="2.3" fill="#e8b64f" opacity="0.7"/><circle cx="1502.1" cy="1407.8" r="1.9" fill="#f6efe4" opacity="0.7"/><circle cx="1556.4" cy="854.9" r="1.2" fill="#7fd3a8" opacity="0.9"/><circle cx="1874.9" cy="795.6" r="1.9" fill="#f6efe4" opacity="0.7"/><circle cx="320.2" cy="1939.7" r="1.3" fill="#f6efe4" opacity="0.8"/><circle cx="1119.6" cy="697" r="2.5" fill="#f6efe4" opacity="0.5"/><circle cx="1187.5" cy="1922.1" r="1.3" fill="#7fd3a8" opacity="0.7"/><circle cx="775.2" cy="1871" r="2.2" fill="#7fd3a8" opacity="0.5"/><circle cx="184.2" cy="1228.8" r="2.6" fill="#f6efe4" opacity="0.9"/><circle cx="666.8" cy="214.5" r="1.4" fill="#f6efe4" opacity="0.4"/><circle cx="1244.4" cy="971.8" r="2.5" fill="#f6efe4" opacity="0.8"/><circle cx="546.4" cy="1027.2" r="1.6" fill="#f6efe4" opacity="0.6"/><circle cx="1798.2" cy="1280.2" r="1.4" fill="#f6efe4" opacity="0.5"/><circle cx="1046.3" cy="1162.9" r="2.3" fill="#f6efe4" opacity="0.4"/><circle cx="850.8" cy="787.2" r="1.5" fill="#f6efe4" opacity="0.5"/><circle cx="936.5" cy="1324.4" r="1.6" fill="#f6efe4" opacity="0.5"/><circle cx="1022.1" cy="493.5" r="2" fill="#f6efe4" opacity="0.4"/><circle cx="315.5" cy="510.2" r="1.6" fill="#7fd3a8" opacity="0.7"/><circle cx="1427.8" cy="1522.5" r="1.6" fill="#f6efe4" opacity="0.6"/><circle cx="158.5" cy="865.5" r="2.6" fill="#f6efe4" opacity="0.6"/><circle cx="1326.8" cy="1555.6" r="1.3" fill="#e8b64f" opacity="0.8"/><circle cx="336.3" cy="662.8" r="1.6" fill="#f6efe4" opacity="0.6"/><circle cx="219.5" cy="1704" r="1.8" fill="#f6efe4" opacity="0.5"/><circle cx="1197" cy="1185.3" r="1.2" fill="#f6efe4" opacity="0.9"/><circle cx="872.9" cy="818.5" r="1.8" fill="#f6efe4" opacity="0.8"/><circle cx="1416.3" cy="1318.5" r="2.4" fill="#f6efe4" opacity="0.7"/><circle cx="793.2" cy="814.9" r="2.2" fill="#f6efe4" opacity="0.7"/><circle cx="322.5" cy="1917.9" r="2" fill="#7fd3a8" opacity="0.5"/><circle cx="1599.4" cy="542.5" r="2.2" fill="#f6efe4" opacity="0.4"/><circle cx="902.7" cy="1784" r="2" fill="#f6efe4" opacity="0.8"/><circle cx="300.8" cy="1621.1" r="2.6" fill="#f6efe4" opacity="0.4"/><circle cx="1729.7" cy="209.3" r="2.4" fill="#f6efe4" opacity="0.7"/><circle cx="1203.6" cy="340.6" r="1.5" fill="#e8b64f" opacity="0.9"/><circle cx="429" cy="786.9" r="1.9" fill="#7fd3a8" opacity="0.9"/><circle cx="771.5" cy="666.9" r="1.6" fill="#f6efe4" opacity="0.8"/><circle cx="176.2" cy="1943.6" r="2" fill="#f6efe4" opacity="0.7"/><circle cx="1841.3" cy="887.6" r="1.9" fill="#f6efe4" opacity="0.4"/><circle cx="994.1" cy="1696.3" r="2.1" fill="#f6efe4" opacity="0.9"/><circle cx="1179" cy="1604.3" r="1.5" fill="#e8b64f" opacity="0.6"/><circle cx="599" cy="777.5" r="1.4" fill="#f6efe4" opacity="0.9"/><circle cx="295.7" cy="653.9" r="2.4" fill="#f6efe4" opacity="0.4"/><circle cx="860.9" cy="1406.3" r="1.9" fill="#e8b64f" opacity="0.5"/><circle cx="212.5" cy="1087" r="1.8" fill="#f6efe4" opacity="0.9"/><circle cx="434.5" cy="142.7" r="2.2" fill="#f6efe4" opacity="0.5"/><circle cx="1797.9" cy="1615.4" r="2.6" fill="#f6efe4" opacity="0.7"/><circle cx="1846.8" cy="603.7" r="2.6" fill="#f6efe4" opacity="0.5"/><circle cx="602.5" cy="986.7" r="1.5" fill="#7fd3a8" opacity="0.5"/><circle cx="1693.3" cy="432.7" r="2" fill="#e8b64f" opacity="0.8"/><circle cx="1371.9" cy="1766.7" r="1.3" fill="#f6efe4" opacity="0.9"/><circle cx="1258.4" cy="721" r="2.1" fill="#f6efe4" opacity="0.5"/><circle cx="760.1" cy="134.3" r="1.8" fill="#f6efe4" opacity="0.9"/><circle cx="487.1" cy="1567.5" r="1.7" fill="#f6efe4" opacity="0.7"/><circle cx="101.8" cy="1540.8" r="2.4" fill="#f6efe4" opacity="0.9"/><circle cx="263.5" cy="1791.1" r="1.7" fill="#f6efe4" opacity="0.6"/><circle cx="1460.2" cy="1659.1" r="1.7" fill="#f6efe4" opacity="0.4"/><circle cx="976.8" cy="1323.9" r="1.7" fill="#f6efe4" opacity="0.4"/><circle cx="1571.3" cy="731.2" r="2.4" fill="#f6efe4" opacity="0.7"/><circle cx="912.1" cy="774.6" r="1.5" fill="#f6efe4" opacity="0.8"/><circle cx="714.8" cy="1261" r="1.9" fill="#f6efe4" opacity="0.8"/><circle cx="316.2" cy="574" r="2.4" fill="#7fd3a8" opacity="0.6"/><circle cx="101" cy="293.5" r="2" fill="#f6efe4" opacity="0.7"/><circle cx="225.5" cy="1209.5" r="1.8" fill="#f6efe4" opacity="0.5"/><circle cx="323.9" cy="1739.8" r="1.4" fill="#e8b64f" opacity="0.8"/><circle cx="1763.8" cy="1247.9" r="1.3" fill="#7fd3a8" opacity="0.5"/><circle cx="389.8" cy="1100.2" r="1.4" fill="#f6efe4" opacity="0.8"/><circle cx="921.5" cy="1840" r="1.3" fill="#f6efe4" opacity="0.4"/><circle cx="1837.9" cy="1879.4" r="2.5" fill="#f6efe4" opacity="0.8"/><circle cx="863.6" cy="1011.9" r="1.6" fill="#f6efe4" opacity="0.6"/><circle cx="1500.8" cy="1669.8" r="2.4" fill="#f6efe4" opacity="0.6"/><circle cx="1625.2" cy="1073.5" r="1.4" fill="#f6efe4" opacity="0.5"/><circle cx="189.2" cy="680" r="2.2" fill="#f6efe4" opacity="0.5"/><circle cx="551.9" cy="214.9" r="1.5" fill="#f6efe4" opacity="0.4"/><circle cx="1323.1" cy="385.6" r="1.6" fill="#f6efe4" opacity="0.6"/><circle cx="766.9" cy="1649.1" r="2" fill="#e8b64f" opacity="0.8"/><circle cx="729.7" cy="315.7" r="2.3" fill="#f6efe4" opacity="0.7"/><circle cx="1714" cy="1255.6" r="1.4" fill="#7fd3a8" opacity="0.5"/><circle cx="1878.6" cy="1448.6" r="2.2" fill="#f6efe4" opacity="0.7"/><circle cx="1666.1" cy="1442.2" r="2.1" fill="#7fd3a8" opacity="0.6"/><circle cx="1119.7" cy="632.3" r="1.8" fill="#f6efe4" opacity="0.7"/><circle cx="1235.9" cy="622.8" r="2" fill="#7fd3a8" opacity="0.7"/><circle cx="1355.4" cy="785.7" r="1.6" fill="#f6efe4" opacity="0.4"/><circle cx="1854.7" cy="1765" r="2.6" fill="#f6efe4" opacity="0.8"/><circle cx="1301.9" cy="1114.4" r="1.3" fill="#f6efe4" opacity="0.5"/><circle cx="566.5" cy="139.6" r="2.1" fill="#f6efe4" opacity="0.9"/><circle cx="1558.6" cy="1620.9" r="1.7" fill="#f6efe4" opacity="0.7"/><circle cx="267.9" cy="1825.7" r="2.4" fill="#f6efe4" opacity="0.7"/><circle cx="1606" cy="850.2" r="1.4" fill="#f6efe4" opacity="0.4"/><circle cx="225.7" cy="854.6" r="1.7" fill="#f6efe4" opacity="0.9"/><circle cx="128.6" cy="1172" r="1.5" fill="#f6efe4" opacity="0.4"/><circle cx="1509.2" cy="1416.7" r="2.4" fill="#e8b64f" opacity="0.6"/><circle cx="579.7" cy="1446.6" r="2.4" fill="#f6efe4" opacity="0.6"/><circle cx="902.6" cy="469.5" r="20.1" fill="url(#glow)"/><path d="M902.6 457L904.9 467.2L915.1 469.5L904.9 471.8L902.6 482L900.3 471.8L890.1 469.5L900.3 467.2Z" fill="#f6efe4" opacity="0.85"/><circle cx="1518.8" cy="935.8" r="15" fill="url(#glow)"/><path d="M1518.8 926.4L1520.5 934.1L1528.2 935.8L1520.5 937.5L1518.8 945.2L1517.1 937.5L1509.4 935.8L1517.1 934.1Z" fill="#f6efe4" opacity="0.85"/><circle cx="661.7" cy="667.2" r="23.1" fill="url(#glow)"/><path d="M661.7 652.7L664.3 664.6L676.2 667.2L664.3 669.8L661.7 681.7L659.1 669.8L647.2 667.2L659.1 664.6Z" fill="#f6efe4" opacity="0.85"/><circle cx="970.5" cy="261.8" r="23.4" fill="url(#glow)"/><path d="M970.5 247.2L973.1 259.2L985.1 261.8L973.1 264.4L970.5 276.4L967.9 264.4L955.9 261.8L967.9 259.2Z" fill="#f6efe4" opacity="0.85"/></svg>
